<?xml version="1.0" encoding="iso-8859-1"?>
<!-- Generator: Adobe Illustrator 19.0.0, SVG Export Plug-In . SVG Version: 6.00 Build 0)  -->
<svg version="1.1" id="Layer_1" xmlns="http://www.w3.org/2000/svg" xmlns:xlink="http://www.w3.org/1999/xlink" x="0px" y="0px"
	 viewBox="0 0 512.002 512.002" style="enable-background:new 0 0 512.002 512.002;" xml:space="preserve">
<g>
	<rect x="79.343" y="198.922" style="fill:#ACD4F3;" width="116.357" height="311.791"/>
	<path style="fill:#ACD4F3;" d="M419.471,261.9c7.328,0.114,13.191-6.128,13.191-13.457v-88.74c0-26.09-13.531-49.009-33.954-62.147
		c-9.696-6.237-15.626-16.908-15.626-28.437V21.603h-72.881v41.3c0,12.847-7.261,24.665-18.835,30.241
		c-24.756,11.926-41.842,37.241-41.842,66.561v88.74c0,7.329,5.863,13.571,13.191,13.457c7.502-0.117,13.619,5.929,13.619,13.403
		v31.181c0,7.329-5.863,13.571-13.191,13.457c-7.502-0.117-13.619,5.929-13.619,13.403v137.161
		c0,22.916,18.578,41.494,41.494,41.494h100.152c22.916,0,41.494-18.578,41.494-41.494V333.395c0-7.329-5.863-13.571-13.191-13.457
		c-7.502,0.117-13.619-5.929-13.619-13.403v-31.231C405.852,267.829,411.97,261.784,419.471,261.9z"/>
</g>
<path style="opacity:0.44;fill:#3C66B1;enable-background:new    ;" d="M249.524,469.22c0,22.916,18.578,41.494,41.494,41.494
	H391.17c22.916,0,41.494-18.578,41.494-41.494L249.524,469.22z"/>
<g style="opacity:0.44;">
	<path style="fill:#3C66B1;" d="M279.863,178.801c-4.556,0-8.25-3.693-8.25-8.25c0-31.338,18.258-60.383,46.512-73.994
		c8.605-4.146,14.166-13.098,14.166-22.808c0-4.557,3.694-8.25,8.25-8.25s8.25,3.693,8.25,8.25c0,16.008-9.227,30.795-23.505,37.673
		c-22.582,10.879-37.173,34.087-37.173,59.129C288.113,175.108,284.419,178.801,279.863,178.801z"/>
</g>
<rect x="310.197" style="fill:#3C66B1;" width="72.885" height="42.229"/>
<g style="opacity:0.39;">
	<path style="fill:#3C66B1;" d="M405.852,275.304c0-1.732,0.341-3.381,0.939-4.902H275.396c0.598,1.52,0.939,3.169,0.939,4.902
		v30.154h129.517V275.304z"/>
</g>
<g style="opacity:0.35;">
	<path style="fill:#3C66B1;" d="M139.702,344.253c-23.302-14.069-47.317-12.423-60.363-9.91v176.37h116.352V341.484
		C182.02,347.539,157.84,355.203,139.702,344.253z"/>
</g>
<rect x="310.197" y="21.12" style="fill:#4E8FE3;" width="72.885" height="21.12"/>
<g>
	<polygon style="opacity:0.26;fill:#FFFFFF;enable-background:new    ;" points="194.348,345.601 79.339,434.782 79.339,353.03 
		194.348,263.848 	"/>
	<path style="opacity:0.26;fill:#FFFFFF;enable-background:new    ;" d="M432.663,160.608c0-21.411-9.118-40.682-23.674-54.168
		L255.084,260.346c2.15,1.574,4.777,2.504,7.633,2.46c7.502-0.117,13.619,5.929,13.619,13.403v31.181
		c0,7.329-5.863,13.571-13.191,13.456c-7.502-0.117-13.619,5.929-13.619,13.404v100.532l156.327-156.329v-2.246
		c0-7.474,6.118-13.521,13.619-13.403c0.755,0.012,1.488-0.059,2.207-0.177l10.74-10.74c0.156-0.826,0.244-1.674,0.244-2.54v-88.739
		H432.663z"/>
</g>
<g>
</g>
<g>
</g>
<g>
</g>
<g>
</g>
<g>
</g>
<g>
</g>
<g>
</g>
<g>
</g>
<g>
</g>
<g>
</g>
<g>
</g>
<g>
</g>
<g>
</g>
<g>
</g>
<g>
</g>
</svg>
